# xmcd
#
# Track frame offsets:
#	150
#	16060
#	29825
#	44316
#	64309
#	85731
#	101517
#	114952
#	129211
#	145986
#	165643
#	181115
#	195240
#
# Disc length: 2875 seconds
#
# Revision: 0
# Processed by: cddbd v1.5.2PL0 Copyright (c) Steve Scherf et al.
# Submitted via: EasyCDDAExtractor 4.6.9.1
#
DISCID=a00b390d
DTITLE=Ziarislav - Ta sila je v nas
DYEAR=2009
DGENRE=Folklore
TTITLE0=Postoj chvilu
TTITLE1=Hej, hory, hory
TTITLE2=Chvala ti velka Matka Zem
TTITLE3=Jesenna je hviezdna obloha
TTITLE4=Svetlo byva s tmou
TTITLE5=Kde pra/meni sa voda
TTITLE6=Sipova ruzicka
TTITLE7=Svadobna
TTITLE8=Blesky boli vcera vyryte
TTITLE9=Zem Slovenov
TTITLE10=Zivy obraz
TTITLE11=Vsetko je dar
TTITLE12=Sila je v nas
EXTD=
EXTT0=
EXTT1=
EXTT2=
EXTT3=
EXTT4=
EXTT5=
EXTT6=
EXTT7=
EXTT8=
EXTT9=
EXTT10=
EXTT11=
EXTT12=
PLAYORDER=
